<?xml version="1.0" encoding="UTF-8"?>
<svg xmlns="http://www.w3.org/2000/svg" xmlns:xlink="http://www.w3.org/1999/xlink" width="24px" height="24px" viewBox="0 0 24 24" version="1.1">
<g id="surface1">
<path style="fill-rule:nonzero;fill:rgb(5.490196%,72.549021%,0%);fill-opacity:1;stroke-width:1;stroke-linecap:butt;stroke-linejoin:miter;stroke:rgb(5.490196%,72.549021%,0%);stroke-opacity:1;stroke-miterlimit:4;" d="M 25 18 L 9 18 C 8.401042 18 8 17.598958 8 17 C 8 16.401042 8.401042 16 9 16 L 22 16 L 20.401042 14.802083 C 20 14.5 19.901042 13.802083 20.197917 13.401042 C 20.5 13 21.197917 12.901042 21.598958 13.197917 L 25.598958 16.197917 C 25.901042 16.5 26.098958 16.901042 25.901042 17.302083 C 25.697917 17.697917 25.401042 18 25 18 Z M 25 18 " transform="matrix(0.75,0,0,0.75,0,0)"/>
<path style="fill-rule:nonzero;fill:rgb(5.490196%,72.549021%,0%);fill-opacity:1;stroke-width:1;stroke-linecap:butt;stroke-linejoin:miter;stroke:rgb(5.490196%,72.549021%,0%);stroke-opacity:1;stroke-miterlimit:4;" d="M 17 27 L 17 26 L 9.5 26 C 9.5 26.098958 9.5 26.197917 9.401042 26.197917 C 9.098958 27.302083 8.098958 28 7 28 C 6.401042 28 6 28.401042 6 29 C 6 29.598958 6.401042 30 7 30 L 18 30 C 17.401042 29.197917 17 28.098958 17 27 Z M 17 27 " transform="matrix(0.75,0,0,0.75,0,0)"/>
<path style="fill-rule:nonzero;fill:rgb(5.490196%,72.549021%,0%);fill-opacity:1;stroke-width:1;stroke-linecap:butt;stroke-linejoin:miter;stroke:rgb(5.490196%,72.549021%,0%);stroke-opacity:1;stroke-miterlimit:4;" d="M 17 22 L 3 22 C 2.401042 22 2 21.598958 2 21 L 2 6 C 2 5.401042 2.401042 5 3 5 L 25 5 C 25.598958 5 26 5.401042 26 6 L 26 7 L 28 7 L 28 6 C 28 4.302083 26.697917 3 25 3 L 3 3 C 1.302083 3 0 4.302083 0 6 L 0 21 C 0 22.697917 1.302083 24 3 24 L 17 24 Z M 17 22 " transform="matrix(0.75,0,0,0.75,0,0)"/>
<path style="fill-rule:nonzero;fill:rgb(5.490196%,72.549021%,0%);fill-opacity:1;stroke-width:1;stroke-linecap:butt;stroke-linejoin:miter;stroke:rgb(5.490196%,72.549021%,0%);stroke-opacity:1;stroke-miterlimit:4;" d="M 29 9 L 22 9 C 20.302083 9 19 10.302083 19 12 L 21 12 C 21 11.401042 21.401042 11 22 11 L 29 11 C 29.598958 11 30 11.401042 30 12 L 30 22 L 21 22 L 21 20 L 19 20 L 19 27 C 19 28.697917 20.302083 30 22 30 L 29 30 C 30.697917 30 32 28.697917 32 27 L 32 12 C 32 10.302083 30.697917 9 29 9 Z M 27 27 L 24 27 C 23.401042 27 23 26.598958 23 26 C 23 25.401042 23.401042 25 24 25 L 27 25 C 27.598958 25 28 25.401042 28 26 C 28 26.598958 27.598958 27 27 27 Z M 27 27 " transform="matrix(0.75,0,0,0.75,0,0)"/>
</g>
</svg>
