<?xml version="1.0" encoding="UTF-8"?>
<svg xmlns="http://www.w3.org/2000/svg" xmlns:xlink="http://www.w3.org/1999/xlink" width="24px" height="24px" viewBox="0 0 24 24" version="1.1">
<g id="surface1">
<path style=" stroke:none;fill-rule:nonzero;fill:rgb(5.490196%,72.549021%,0%);fill-opacity:1;" d="M 13.667969 0.632812 L 13.667969 3 L 23.253906 3 C 23.667969 3 24 3.335938 24 3.746094 L 24 20.054688 C 24 20.464844 23.667969 20.800781 23.253906 20.800781 L 13.667969 20.800781 L 13.667969 23.367188 L 0 20.949219 L 0 3.046875 Z M 9.132812 10.578125 C 9.179688 9.851562 9.003906 9.113281 8.515625 8.640625 C 7.933594 8.078125 7.542969 7.980469 5.878906 8.066406 L 4.523438 8.136719 L 4.523438 15.785156 L 5.898438 15.785156 L 5.898438 13.128906 C 8.441406 13.347656 9.027344 11.882812 9.132812 10.578125 M 7.550781 10.578125 C 7.476562 11.824219 6.902344 11.769531 5.898438 11.753906 L 5.898438 9.441406 C 7.027344 9.402344 7.515625 9.558594 7.550781 10.578125 M 22.144531 10.574219 L 19.5625 13.265625 L 16.859375 10.574219 L 18.878906 10.574219 L 18.878906 7.03125 L 13.667969 7.03125 L 13.667969 13.953125 L 15.742188 11.910156 L 18.832031 15 C 18.832031 15 15.808594 17.949219 15.738281 17.949219 C 15.667969 17.949219 13.667969 16.042969 13.667969 16.042969 L 13.667969 20.011719 L 23.207031 20.011719 L 23.207031 3.789062 L 13.667969 3.789062 L 13.667969 5.753906 L 20.160156 5.753906 L 20.160156 10.574219 Z M 22.144531 10.574219 "/>
</g>
</svg>
