<?xml version="1.0" encoding="UTF-8"?>
<svg xmlns="http://www.w3.org/2000/svg" xmlns:xlink="http://www.w3.org/1999/xlink" width="22px" height="22px" viewBox="0 0 22 22" version="1.1">
<g id="surface1">
<path style="fill-rule:evenodd;fill:rgb(33.725491%,61.176473%,32.941177%);fill-opacity:1;stroke-width:2.1;stroke-linecap:butt;stroke-linejoin:miter;stroke:rgb(41.176471%,67.843139%,40.392157%);stroke-opacity:1;stroke-miterlimit:4;" d="M 58.99858 2.002841 L 51.413352 2.002841 L 49.708807 0.298295 C 49.314631 -0.0958807 48.68608 -0.0958807 48.291903 0.298295 L 46.587358 2.002841 L 1.00142 2.002841 C 0.447443 2.002841 0 2.450284 0 3.004261 L 0 15 C 0 15.553977 0.447443 16.00142 1.00142 16.00142 L 42.997159 16.00142 C 43.551136 16.00142 43.99858 15.553977 43.99858 15 L 43.99858 11.004972 C 43.99858 10.450994 43.551136 10.003551 42.997159 10.003551 C 42.443182 10.003551 41.995739 10.450994 41.995739 11.004972 L 41.995739 13.99858 L 38.00071 13.99858 L 38.00071 12.997159 C 38.00071 12.443182 37.553267 11.995739 36.99929 11.995739 C 36.445312 11.995739 35.997869 12.443182 35.997869 12.997159 L 35.997869 13.99858 L 32.002841 13.99858 L 32.002841 12.997159 C 32.002841 12.443182 31.555398 11.995739 31.00142 11.995739 C 30.447443 11.995739 30 12.443182 30 12.997159 L 30 13.99858 L 26.004972 13.99858 L 26.004972 11.004972 C 26.004972 10.450994 25.546875 10.003551 25.003551 10.003551 C 24.449574 10.003551 24.002131 10.450994 24.002131 11.004972 L 24.002131 13.99858 L 19.996449 13.99858 L 19.996449 12.997159 C 19.996449 12.443182 19.549006 11.995739 18.995028 11.995739 C 18.451705 11.995739 18.004261 12.443182 18.004261 12.997159 L 18.004261 13.99858 L 13.99858 13.99858 L 13.99858 12.997159 C 13.99858 12.443182 13.551136 11.995739 12.997159 11.995739 C 12.443182 11.995739 11.995739 12.443182 11.995739 12.997159 L 11.995739 13.99858 L 8.00071 13.99858 L 8.00071 11.004972 C 8.00071 10.450994 7.553267 10.003551 6.99929 10.003551 C 6.445313 10.003551 5.997869 10.450994 5.997869 11.004972 L 5.997869 13.99858 L 2.002841 13.99858 L 2.002841 3.995028 L 47.002841 3.995028 C 47.269176 3.995028 47.524858 3.899148 47.705966 3.707386 L 48.995028 2.418324 L 50.294744 3.707386 C 50.475852 3.899148 50.731534 3.995028 50.997869 3.995028 L 57.997159 3.995028 L 57.997159 13.99858 L 47.002841 13.99858 C 46.448864 13.99858 46.00142 14.446023 46.00142 15 C 46.00142 15.553977 46.448864 16.00142 47.002841 16.00142 L 58.99858 16.00142 C 59.552557 16.00142 60 15.553977 60 15 L 60 3.004261 C 60 2.450284 59.552557 2.002841 58.99858 2.002841 M 54.002131 9.002131 C 54.002131 7.894176 53.107244 6.99929 51.99929 6.99929 C 50.901989 6.99929 49.996449 7.894176 49.996449 9.002131 C 49.996449 10.099432 50.901989 11.004972 51.99929 11.004972 C 53.107244 11.004972 54.002131 10.099432 54.002131 9.002131 M 8.00071 49.996449 C 8.00071 51.104403 8.895597 51.99929 10.003551 51.99929 C 11.100852 51.99929 11.995739 51.104403 11.995739 49.996449 C 11.995739 48.899148 11.100852 48.004261 10.003551 48.004261 C 8.895597 48.004261 8.00071 48.899148 8.00071 49.996449 M 50.710227 18.291903 C 50.316051 17.897727 49.6875 17.897727 49.293324 18.291903 L 10.003551 57.581676 L 2.418324 49.996449 L 11.995739 40.419034 L 13.295455 41.708097 C 13.487216 41.899858 13.742898 41.995739 13.99858 41.995739 C 14.254261 41.995739 14.509943 41.899858 14.701705 41.708097 C 15.095881 41.31392 15.095881 40.685369 14.701705 40.291193 L 13.412642 39.002131 L 16.00142 36.413352 L 17.290483 37.702415 C 17.492898 37.90483 17.74858 38.00071 18.004261 38.00071 C 18.259943 38.00071 18.515625 37.90483 18.707386 37.702415 C 19.101562 37.318892 19.101562 36.679688 18.707386 36.296165 L 17.418324 34.996449 L 19.996449 32.418324 L 23.288352 35.710227 C 23.490767 35.901989 23.746449 35.997869 24.002131 35.997869 C 24.257813 35.997869 24.513494 35.901989 24.705256 35.710227 C 25.099432 35.316051 25.099432 34.6875 24.705256 34.293324 L 21.413352 31.00142 L 24.002131 28.412642 L 25.291193 29.701705 C 25.482955 29.904119 25.74929 30 26.004972 30 C 26.260653 30 26.516335 29.904119 26.708097 29.701705 C 27.102273 29.318182 27.102273 28.678977 26.708097 28.295455 L 25.419034 26.995739 L 27.997159 24.417614 L 29.296875 25.706676 C 29.488636 25.898438 29.744318 26.004972 30 26.004972 C 30.255682 26.004972 30.511364 25.898438 30.703125 25.706676 C 31.097301 25.3125 31.097301 24.683949 30.703125 24.289773 L 29.414063 23.00071 L 32.002841 20.411932 L 35.294744 23.703835 C 35.68892 24.098011 36.317472 24.098011 36.711648 23.703835 C 37.09517 23.320313 37.09517 22.681108 36.711648 22.297585 L 32.705966 18.291903 C 32.31179 17.897727 31.683239 17.897727 31.289063 18.291903 L 0.298295 49.293324 C -0.0958807 49.6875 -0.0958807 50.316051 0.298295 50.710227 L 9.289773 59.701705 C 9.492188 59.904119 9.747869 60 10.003551 60 C 10.259233 60 10.514915 59.904119 10.706676 59.701705 L 50.710227 19.708807 C 51.09375 19.314631 51.09375 18.68608 50.710227 18.291903 M 60 45 L 60 56.995739 C 60 57.549716 59.552557 57.997159 58.99858 57.997159 L 17.002841 57.997159 C 16.448864 57.997159 16.00142 57.549716 16.00142 56.995739 C 16.00142 56.452415 16.448864 56.004972 17.002841 56.004972 L 57.997159 56.004972 L 57.997159 46.00142 L 54.002131 46.00142 L 54.002131 48.995028 C 54.002131 49.549006 53.554688 49.996449 53.00071 49.996449 C 52.446733 49.996449 51.99929 49.549006 51.99929 48.995028 L 51.99929 46.00142 L 48.004261 46.00142 L 48.004261 47.002841 C 48.004261 47.556818 47.556818 48.004261 47.002841 48.004261 C 46.448864 48.004261 46.00142 47.556818 46.00142 47.002841 L 46.00142 46.00142 L 41.995739 46.00142 L 41.995739 47.002841 C 41.995739 47.556818 41.548295 48.004261 41.004972 48.004261 C 40.450994 48.004261 40.003551 47.556818 40.003551 47.002841 L 40.003551 46.00142 L 35.997869 46.00142 L 35.997869 48.995028 C 35.997869 49.549006 35.550426 49.996449 34.996449 49.996449 C 34.453125 49.996449 33.995028 49.549006 33.995028 48.995028 L 33.995028 46.00142 L 30 46.00142 L 30 47.002841 C 30 47.556818 29.552557 48.004261 28.99858 48.004261 C 28.444602 48.004261 27.997159 47.556818 27.997159 47.002841 L 27.997159 45 C 27.997159 44.446023 28.444602 43.99858 28.99858 43.99858 L 58.99858 43.99858 C 59.552557 43.99858 60 44.446023 60 45 " transform="matrix(0.366667,0,0,0.366667,0,0)"/>
</g>
</svg>
